# xmcd CD database file generated by Grip 3.2.0
# 
# Track frame offsets:
#       150
#       18124
#       40683
#       58555
#       71210
#       91888
#       115273
#       137077
#       157373
#       183566
#       206207
#       222720
# 
# Disc length: 3261 seconds
# 
# Revision: 5
# Processed by: cddbd v1.5.1PL0 Copyright (c) Steve Scherf et al.
# Submitted via: Grip 3.2.0
# 
DISCID=b80cbb0c
DTITLE=Gordon Haskell - Harry's bar
DYEAR=2002
DGENRE=Blues
TTITLE0=How wonderful you are
TTITLE1=All the time in the world
TTITLE2=Voodoo dance
TTITLE3=Freeway to her dreams
TTITLE4=Sunshine in the night
TTITLE5=Al Capone
TTITLE6=Feelin' loose
TTITLE7=There goes my heart again
TTITLE8=Roll with it
TTITLE9=Someone I knew
TTITLE10=A little help from you
TTITLE11=All in the scheme of things
EXTD=YEAR: 2002 ID3G:   0
EXTT0=
EXTT1=
EXTT2=
EXTT3=
EXTT4=
EXTT5=
EXTT6=
EXTT7=
EXTT8=
EXTT9=
EXTT10=
EXTT11=
PLAYORDER=
